<svg xmlns="http://www.w3.org/2000/svg" viewBox="0 0 920 1080"><title>Asset 7</title><g id="Layer_2" data-name="Layer 2"><g id="Pannel-2-1"><g id="timeline"><rect x="144.98" y="188.21" width="600" height="13.5"/><circle cx="146.5" cy="197.5" r="26" fill="#fff"/><path d="M146.5,172A25.5,25.5,0,1,1,121,197.5,25.53,25.53,0,0,1,146.5,172m0-1A26.5,26.5,0,1,0,173,197.5,26.49,26.49,0,0,0,146.5,171Z"/><text transform="translate(119.56 263.14)" font-size="24" font-family="Roboto-Regular, Roboto">2013</text><text transform="translate(420.99 262.16)" font-size="24" font-family="Roboto-Regular, Roboto">2015</text><text transform="translate(699.99 263.16)" font-size="24" font-family="Roboto-Regular, Roboto">2017</text><circle cx="446.5" cy="196" r="14.5"/><path d="M446.5,182a14,14,0,1,1-14,14,14,14,0,0,1,14-14m0-1a15,15,0,1,0,15,15,15,15,0,0,0-15-15Z" fill="#fff"/><circle cx="732" cy="195" r="14.5"/><path d="M732,181a14,14,0,1,1-14,14,14,14,0,0,1,14-14m0-1a15,15,0,1,0,15,15,15,15,0,0,0-15-15Z" fill="#fff"/></g><g id="title"><text transform="translate(151.98 94.01)" font-size="48" font-family="Roboto-Bold, Roboto" font-weight="700">Internet Usage <tspan x="328.85" y="0" font-size="36" font-family="Roboto-Regular, Roboto" font-weight="400">in past s</tspan><tspan x="463.94" y="0" font-size="36" font-family="Roboto-Regular, Roboto" font-weight="400" letter-spacing="-0.01em">ev</tspan><tspan x="499.99" y="0" font-size="36" font-family="Roboto-Regular, Roboto" font-weight="400">en d</tspan><tspan x="568.14" y="0" font-size="36" font-family="Roboto-Regular, Roboto" font-weight="400" letter-spacing="-0.01em">a</tspan><tspan x="587.46" y="0" font-size="36" font-family="Roboto-Regular, Roboto" font-weight="400">ys</tspan></text></g><g id="pie"><g id="axes_1" data-name="axes 1"><g id="patch_2" data-name="patch 2"><path d="M778,699.5a325,325,0,1,0-649,25.74L453,699.5Z" fill="none" stroke="#000" stroke-miterlimit="10"/></g><g id="patch_3" data-name="patch 3"><path d="M129,725.24A325,325,0,0,0,778,699.5H453Z" stroke="#000" stroke-miterlimit="10"/></g></g><text transform="translate(407.97 528.01)" font-size="60" font-family="Roboto-Medium, Roboto" font-weight="500"><tspan letter-spacing="-0.03em">Y</tspan><tspan x="34.66" y="0">es</tspan><tspan x="-32.65" y="80.39">51.3%</tspan></text><text transform="translate(418.32 814.19)" font-size="60.29" fill="#fff" font-family="Roboto-Medium, Roboto" font-weight="500">No<tspan x="-43.39" y="80.39">48.7%</tspan></text></g><rect width="920" height="1080" fill="none"/></g></g></svg>